Final.Destination.5.2011.PL.BRRip.XviD-RLF
------------------------------------------


Complete name: rlf-final5-pl.avi
Format: AVI
Format/Info: Audio Video Interleave
File size: 702 MiB
Duration: 1h 31mn
Overall bit rate: 1 069 Kbps
Language: Polish
Subs: None
Encoder: Ralf

Video:

Format: MPEG-4 Visual
Format profile: Advanced Simple@L5
Format settings, BVOP: 2
Format settings, QPel: No
Format settings, GMC: No warppoints
Format settings, Matrix: H.263
Muxing mode: Packed bitstream
Codec ID: XVID
Duration: 1h 31mn
Bit rate: 931 Kbps
Width: 688 pixels
Height: 288 pixels
Display aspect ratio: 2.35:1
Frame rate: 23.976 fps
Color space: YUV
Chroma subsampling: 4:2:0
Bit depth: 8 bits
Scan type: Progressive
Bits/(Pixel*Frame): 0.196
Stream size: 612 MiB (87%)
Writing library: XviD 63

Audio:

Format: MPEG Audio
Format profile: Layer 3
Codec ID/Hint: MP3
Duration: 1h 31mn
Bit rate mode: Constant
Bit rate: 128 Kbps
Channel(s): 2 channels
Sampling rate: 48.0 KHz
Stream size: 84.1 MiB (12%)
Alignment: Split accross interleaves
Interleave, duration: 42 ms (1.00 video frame)

Movie Info:

Niewazne dokad uciekniesz, niewaznie gdzie sie schowasz... 
nie oszukasz smierci.W Oszukac przeznaczenie 5 smierc jest 
jak zawsze wszechobecna.
                                           
http://www.imdb.com/title/tt1622979/ 
http://www.filmweb.pl/film/Oszukaμ+przeznaczenie+5+3D-2011-564161

Screens:
 
http://www.postimg.com/56000/photo-55347.jpg 
http://www.postimg.com/56000/photo-55348.jpg 
http://www.postimg.com/56000/photo-55349.jpg 
http://www.postimg.com/56000/photo-55350.jpg